<svg xmlns="http://www.w3.org/2000/svg" viewBox="0 0 2048 2048" width="1em" height="1em" fill="currentColor">
  <g>
    <path d="M1828.2,1413.4c-14.5-18.8-31.9-39.1-50.7-59.4c-18.8-23.2-53.6-24.6-75.4-4.3c-5.8,5.8-11.6,13-14.5,21.7c0,0,0,0,0,1.5
		c-7.2,18.8-2.9,39.1,10.1,53.6c76.8,85.5,89.8,131.9,86.9,140.6c-7.2,8.7-58,23.2-197.1-11.6c-20.3-4.4-42-11.6-66.7-18.8
		c-14.5-4.3-30.4-8.7-46.4-14.5c24.6-29,47.8-59.4,66.7-92.7c0-1.5,1.5-1.5,1.5-2.9c20.3-34.8,36.2-72.5,47.8-110.1
		c-2.9-1.4-7.2-2.9-10.1-2.9c-5.8-1.5-13-1.5-17.4-5.8c-5.8-4.3-7.2-13-8.7-21.7c-5.8-43.5-24.6-85.5-52.2-118.8
		c-24.6-33.3-59.4-59.4-78.2-97.1c-17.4-36.2-11.6-91.3,26.1-107.2c10.1-4.3,21.7-5.8,31.9-11.6c10.1-7.3,17.4-18.8,23.2-30.4
		c11.6-21.7,24.6-43.5,36.2-65.2c-23.2-4.3-46.4-11.6-68.1-21.7c1.5-20.3-17.4-37.7-36.2-46.4c-18.8-7.2-40.6-10.1-59.4-20.3
		c-21.7-11.6-34.8-29-40.6-50.7c-31.9-1.5-66.7-2.9-97.1,8.7c-27.5,10.1-50.7,29-78.2,36.2c-47.8,15.9-100-4.4-149.3-5.8
		c-8.7-1.5-17.4-1.5-23.2,2.9c-7.2,2.9-13,10.1-18.8,14.5c-14.5,11.6-33.3,14.5-52.2,17.4c-36.2,5.8-81.1,7.3-104.3-21.7
		c-26.1-30.4-10.1-75.4-8.7-114.5c1.5-26.1-2.9-50.7-14.5-73.9c-44.9,18.8-88.4,43.5-127.5,73.9c-63.8,47.8-115.9,107.2-156.5,175.3
		c0,1.5-1.5,1.5-1.5,2.9c-18.8,33.3-34.8,68.1-46.4,104.3c-13-11.6-26.1-21.7-37.7-33.3c-17.4-17.4-34.8-33.3-47.8-47.8
		c-101.4-102.9-113-155.1-110.1-163.8c7.2-8.7,53.6-20.3,165.2,4.4c20.3,4.3,40.6-2.9,53.6-18.8v-1.5c18.8-21.7,15.9-56.5-5.8-75.4
		c-7.2-4.3-14.5-8.7-23.2-10.1c-26.1-7.3-53.6-11.6-81.1-14.5c-104.3-11.6-172.4,8.7-202.9,60.9c-10.1,18.8-21.7,52.2-8.7,97.1
		c17.4,68.1,82.6,150.7,175.3,237.6c29,27.5,60.9,55.1,95.6,84.1c24.6,20.3,50.7,40.6,76.8,60.9c18.8,14.5,36.2,27.5,55.1,40.6
		c18.8,14.5,37.7,27.5,56.5,40.6c86.9,59.4,178.2,117.4,268.1,168.1c31.9,18.8,63.8,37.7,97.1,55.1c31.9,17.4,63.8,33.3,95.6,50.7
		c73.9,36.2,147.8,71,217.4,100c29,11.6,59.4,23.2,86.9,33.3c40.6,15.9,79.7,29,117.4,39.1l2.9,1.5c88.4,26.1,160.8,40.6,218.8,40.6
		h7.2c72.5,0,123.2-21.7,147.8-63.8C1909.4,1568.5,1892,1498.9,1828.2,1413.4z M1205.1,1649.6c-127.5-56.5-252.1-120.3-372.4-189.8
		c-120.3-68.1-237.7-144.9-349.2-226.1c-11.6-8.7-29-7.2-37.7,5.8c-4.4,5.8-7.2,14.5-4.4,21.7c59.4,266.6,298.5,465.2,582.5,465.2
		c60.9,1.5,120.3-8.7,178.2-26.1c14.5-4.4,21.7-20.3,17.4-34.8C1218.2,1658.3,1212.3,1652.5,1205.1,1649.6z"/>
	<path d="M1589.5,380.2l0.7,1.3c-1.9,15.6-3.8,31.1-12.8,42.2c-9,11.1-26.5,15-40.1,17c-32.4,6.6-67.3,14.6-95.8,32.2
		c-23.9,17-41.3,40.4-67.2,53.4c-24.6,15.7-54.3,21-84.1,23.1c-10.6-53.1-47.1-99.6-93.3-129.8c-32.5-22.5-69.5-37.9-109.1-48.8
		c31-15.7,63.4-25.6,98.4-33.5C1328,302.9,1468.7,321.1,1589.5,380.2z"/>
	<path d="M1776.4,1039c-14.5,62.1-39.9,119.9-76.2,173.4c-2.4-2.1-6.3-4.6-9.1-5.3c-5.3-2.9-12.3-4.7-15.4-10
		c-4.5-5.7-3.8-14.4-3-23.2c5.3-43.5-2.5-88.9-20.8-128.1c-15.5-38.4-42.7-72.4-51.5-113.6c-7.8-39.4,11.6-91.3,52.1-97.3
		c10.9-1.7,22.5-0.2,33.8-3.2c11.6-4.5,21.6-13.9,30.1-23.7c20.5-21.6,41.1-43.3,61.7-64.9c18.4,73.6,23.4,152.7,11.9,232.1
		C1787.3,996.9,1783.3,1018.3,1776.4,1039z"/>
	<path d="M1697.4,674.9c-1.6,5-1.7,9.6-3.3,14.5c-23.5,2.3-47.8,1.8-71.5-1.8c-4.3-19.9-27.2-31.3-47.7-34.4
		c-20.1-1.7-41.8,1.6-62.7-2.9c-24.1-5.1-41.5-18.1-53.1-37.4c1.4-0.4,1.4-0.4,2.8-0.8c14.3-2.7,31-7.5,39.7-19.1
		c8.7-11.6,10.2-27.1,10.3-42.2l-0.4-1.4C1580.5,579.1,1644,621,1697.4,674.9z"/>
	<path d="M1157.2,558.2c-21.1,4.4-41.7,6.9-62,12.5c-7.7,1.3-16.6,3.4-21.3,9.6c-5.4,5-8.6,13.8-12,19.3
		c-10.3,16.5-27.1,25.1-43.9,33.7c-33.6,17.2-75.2,32.6-106.2,12.5c-35-21-33.2-68-45-106.7c-6.7-24.8-18.4-46.5-36.2-64.5
		c33.7-30.9,69.8-58.1,110.3-77.9c40.3,7.6,78.5,19.9,112.7,39.7C1102.1,462.9,1142.3,506.2,1157.2,558.2z"/>
</g>
</svg>
