<?xml version="1.0" encoding="UTF-8"?>
<svg id="Layer_1" data-name="Layer 1" xmlns="http://www.w3.org/2000/svg" viewBox="0 0 3840 2160">
  <defs>
    <style>
      .cls-1 {
        stroke-width: 0px;
      }

      .cls-2 {
        font-family: Inter-ExtraBold, Inter;
        font-size: 542.1px;
        font-variation-settings: 'wght' 800, 'slnt' 0;
        font-weight: 700;
      }
    </style>
  </defs>
  <g>
    <path class="cls-1" d="m1300.67,1334.69c-9.47-12.27-20.83-25.53-33.1-38.78-12.27-15.15-34.99-16.06-49.22-2.81-3.79,3.79-7.57,8.49-9.47,14.17v.98c-4.7,12.27-1.89,25.53,6.59,34.99,50.14,55.82,58.62,86.11,56.73,91.79-4.7,5.68-37.86,15.15-128.67-7.57-13.25-2.87-27.42-7.57-43.54-12.27-9.47-2.81-19.85-5.68-30.29-9.47,16.06-18.93,31.21-38.78,43.54-60.52,0-.98.98-.98.98-1.89,13.25-22.72,23.63-47.33,31.21-71.88-1.89-.91-4.7-1.89-6.59-1.89-3.79-.98-8.49-.98-11.36-3.79-3.79-2.81-4.7-8.49-5.68-14.17-3.79-28.4-16.06-55.82-34.08-77.56-16.06-21.74-38.78-38.78-51.05-63.39-11.36-23.63-7.57-59.6,17.04-69.98,6.59-2.81,14.17-3.79,20.83-7.57,6.59-4.77,11.36-12.27,15.15-19.85,7.57-14.17,16.06-28.4,23.63-42.56-15.15-2.81-30.29-7.57-44.46-14.17.98-13.25-11.36-24.61-23.63-30.29-12.27-4.7-26.5-6.59-38.78-13.25-14.17-7.57-22.72-18.93-26.5-33.1-20.83-.98-43.54-1.89-63.39,5.68-17.95,6.59-33.1,18.93-51.05,23.63-31.21,10.38-65.28-2.87-97.47-3.79-5.68-.98-11.36-.98-15.15,1.89-4.7,1.89-8.49,6.59-12.27,9.47-9.47,7.57-21.74,9.47-34.08,11.36-23.63,3.79-52.94,4.77-68.09-14.17-17.04-19.85-6.59-49.22-5.68-74.75.98-17.04-1.89-33.1-9.47-48.24-29.31,12.27-57.71,28.4-83.24,48.24-41.65,31.21-75.66,69.98-102.17,114.44,0,.98-.98.98-.98,1.89-12.27,21.74-22.72,44.46-30.29,68.09-8.49-7.57-17.04-14.17-24.61-21.74-11.36-11.36-22.72-21.74-31.21-31.21-66.2-67.18-73.77-101.25-71.88-106.93,4.7-5.68,34.99-13.25,107.85,2.87,13.25,2.81,26.5-1.89,34.99-12.27v-.98c12.27-14.17,10.38-36.88-3.79-49.22-4.7-2.81-9.47-5.68-15.15-6.59-17.04-4.77-34.99-7.57-52.94-9.47-68.09-7.57-112.55,5.68-132.46,39.76-6.59,12.27-14.17,34.08-5.68,63.39,11.36,44.46,53.92,98.38,114.44,155.11,18.93,17.95,39.76,35.97,62.41,54.9,16.06,13.25,33.1,26.5,50.14,39.76,12.27,9.47,23.63,17.95,35.97,26.5,12.27,9.47,24.61,17.95,36.88,26.5,56.73,38.78,116.33,76.64,175.02,109.74,20.83,12.27,41.65,24.61,63.39,35.97,20.83,11.36,41.65,21.74,62.41,33.1,48.24,23.63,96.49,46.35,141.92,65.28,18.93,7.57,38.78,15.15,56.73,21.74,26.5,10.38,52.03,18.93,76.64,25.53l1.89.98c57.71,17.04,104.97,26.5,142.84,26.5h4.7c47.33,0,80.43-14.17,96.49-41.65,20.04-35.25,8.68-80.69-32.97-136.51Zm-406.78,154.2c-83.24-36.88-164.58-78.53-243.11-123.91-78.53-44.46-155.18-94.59-227.97-147.6-7.57-5.68-18.93-4.7-24.61,3.79-2.87,3.79-4.7,9.47-2.87,14.17,38.78,174.04,194.87,303.69,380.27,303.69,39.76.98,78.53-5.68,116.33-17.04,9.47-2.87,14.17-13.25,11.36-22.72-.85-4.7-4.7-8.49-9.4-10.38Z"/>
    <path class="cls-1" d="m1144.84,660.19l.46.85c-1.24,10.18-2.48,20.3-8.36,27.55-5.88,7.25-17.3,9.79-26.18,11.1-21.15,4.31-43.94,9.53-62.54,21.02-15.6,11.1-26.96,26.37-43.87,34.86-16.06,10.25-35.45,13.71-54.9,15.08-6.92-34.66-30.75-65.02-60.91-84.74-21.22-14.69-45.37-24.74-71.22-31.86,20.24-10.25,41.39-16.71,64.24-21.87,92.57-22.46,184.42-10.58,263.28,28.01Z"/>
    <path class="cls-1" d="m1266.85,1090.27c-9.47,40.54-26.05,78.27-49.75,113.2-1.57-1.37-4.11-3-5.94-3.46-3.46-1.89-8.03-3.07-10.05-6.53-2.94-3.72-2.48-9.4-1.96-15.15,3.46-28.4-1.63-58.04-13.58-83.63-10.12-25.07-27.88-47.26-33.62-74.16-5.09-25.72,7.57-59.6,34.01-63.52,7.12-1.11,14.69-.13,22.07-2.09,7.57-2.94,14.1-9.07,19.65-15.47,13.38-14.1,26.83-28.27,40.28-42.37,12.01,48.05,15.28,99.69,7.77,151.52-1.76,14.17-4.37,28.14-8.88,41.65Z"/>
    <path class="cls-1" d="m1215.28,852.58c-1.04,3.26-1.11,6.27-2.15,9.47-15.34,1.5-31.21,1.18-46.68-1.18-2.81-12.99-17.76-20.43-31.14-22.46-13.12-1.11-27.29,1.04-40.93-1.89-15.73-3.33-27.09-11.82-34.66-24.42q.91-.26,1.83-.52c9.34-1.76,20.24-4.9,25.92-12.47,5.68-7.57,6.66-17.69,6.72-27.55l-.26-.91c45.04,19.39,86.5,46.74,121.36,81.93Z"/>
    <path class="cls-1" d="m862.63,776.39c-13.77,2.87-27.22,4.5-40.48,8.16-5.03.85-10.84,2.22-13.91,6.27-3.53,3.26-5.61,9.01-7.83,12.6-6.72,10.77-17.69,16.39-28.66,22-21.93,11.23-49.09,21.28-69.33,8.16-22.85-13.71-21.67-44.39-29.38-69.66-4.37-16.19-12.01-30.36-23.63-42.11,22-20.17,45.57-37.93,72.01-50.86,26.31,4.96,51.25,12.99,73.57,25.92,31.66,17.3,57.91,45.57,67.63,79.51Z"/>
  </g>
  <text class="cls-2" transform="translate(1528.45 1326.54)"><tspan x="0" y="0">DoomUI</tspan></text>
</svg>