<?xml version="1.0" encoding="UTF-8"?>
<svg id="Layer_1" data-name="Layer 1" xmlns="http://www.w3.org/2000/svg" viewBox="0 0 2048 2048">
  <defs>
    <style>
      .cls-1 {
        stroke-width: 0px;
      }
    </style>
  </defs>
  <path class="cls-1" d="m1793.83,1397.22c-13.89-18-30.55-37.44-48.55-56.88-18-22.22-51.33-23.56-72.2-4.12-5.55,5.55-11.11,12.45-13.89,20.78v1.44c-6.89,18-2.78,37.44,9.67,51.33,73.54,81.88,85.99,126.31,83.22,134.64-6.89,8.33-55.54,22.22-188.75-11.11-19.44-4.21-40.22-11.11-63.87-18-13.89-4.12-29.11-8.33-44.43-13.89,23.56-27.77,45.77-56.88,63.87-88.77,0-1.44,1.44-1.44,1.44-2.78,19.44-33.32,34.67-69.43,45.77-105.43-2.78-1.34-6.89-2.78-9.67-2.78-5.55-1.44-12.45-1.44-16.66-5.55-5.55-4.12-6.89-12.45-8.33-20.78-5.55-41.66-23.56-81.88-49.99-113.76-23.56-31.89-56.88-56.88-74.89-92.98-16.66-34.67-11.11-87.43,24.99-102.66,9.67-4.12,20.78-5.55,30.55-11.11,9.67-6.99,16.66-18,22.22-29.11,11.11-20.78,23.56-41.66,34.67-62.44-22.22-4.12-44.43-11.11-65.21-20.78,1.44-19.44-16.66-36.1-34.67-44.43-18-6.89-38.88-9.67-56.88-19.44-20.78-11.11-33.32-27.77-38.88-48.55-30.55-1.44-63.87-2.78-92.98,8.33-26.33,9.67-48.55,27.77-74.89,34.67-45.77,15.23-95.76-4.21-142.97-5.55-8.33-1.44-16.66-1.44-22.22,2.78-6.89,2.78-12.45,9.67-18,13.89-13.89,11.11-31.89,13.89-49.99,16.66-34.67,5.55-77.66,6.99-99.88-20.78-24.99-29.11-9.67-72.2-8.33-109.65,1.44-24.99-2.78-48.55-13.89-70.77-43,18-84.65,41.66-122.1,70.77-61.1,45.77-110.99,102.66-149.87,167.87,0,1.44-1.44,1.44-1.44,2.78-18,31.89-33.32,65.21-44.43,99.88-12.45-11.11-24.99-20.78-36.1-31.89-16.66-16.66-33.32-31.89-45.77-45.77-97.1-98.54-108.21-148.53-105.43-156.86,6.89-8.33,51.33-19.44,158.2,4.21,19.44,4.12,38.88-2.78,51.33-18v-1.44c18-20.78,15.23-54.11-5.55-72.2-6.89-4.12-13.89-8.33-22.22-9.67-24.99-6.99-51.33-11.11-77.66-13.89-99.88-11.11-165.09,8.33-194.3,58.32-9.67,18-20.78,49.99-8.33,92.98,16.66,65.21,79.1,144.31,167.87,227.53,27.77,26.33,58.32,52.76,91.55,80.54,23.56,19.44,48.55,38.88,73.54,58.32,18,13.89,34.67,26.33,52.76,38.88,18,13.89,36.1,26.33,54.11,38.88,83.22,56.88,170.65,112.42,256.74,160.97,30.55,18,61.1,36.1,92.98,52.76,30.55,16.66,61.1,31.89,91.55,48.55,70.77,34.67,141.54,67.99,208.18,95.76,27.77,11.11,56.88,22.22,83.22,31.89,38.88,15.23,76.32,27.77,112.42,37.44l2.78,1.44c84.65,24.99,153.98,38.88,209.53,38.88h6.89c69.43,0,117.98-20.78,141.54-61.1,29.4-51.71,12.74-118.36-48.36-200.24Zm-596.69,226.19c-122.1-54.11-241.41-115.2-356.61-181.75-115.2-65.21-227.62-138.76-334.4-216.52-11.11-8.33-27.77-6.89-36.1,5.55-4.21,5.55-6.89,13.89-4.21,20.78,56.88,255.3,285.85,445.48,557.81,445.48,58.32,1.44,115.2-8.33,170.65-24.99,13.89-4.21,20.78-19.44,16.66-33.32-1.24-6.89-6.89-12.45-13.79-15.23Z"/>
  <path class="cls-1" d="m1565.25,407.82l.67,1.24c-1.82,14.94-3.64,29.78-12.26,40.41-8.62,10.63-25.38,14.36-38.4,16.28-31.03,6.32-64.45,13.98-91.74,30.84-22.89,16.28-39.55,38.69-64.35,51.14-23.56,15.03-52,20.11-80.54,22.12-10.15-50.85-45.1-95.38-89.35-124.3-31.12-21.55-66.55-36.29-104.48-46.73,29.69-15.03,60.71-24.51,94.23-32.08,135.79-32.94,270.53-15.51,386.2,41.08Z"/>
  <path class="cls-1" d="m1744.22,1038.7c-13.89,59.47-38.21,114.82-72.97,166.05-2.3-2.01-6.03-4.4-8.71-5.08-5.08-2.78-11.78-4.5-14.75-9.58-4.31-5.46-3.64-13.79-2.87-22.22,5.08-41.66-2.39-85.13-19.92-122.67-14.84-36.77-40.89-69.33-49.32-108.78-7.47-37.73,11.11-87.43,49.89-93.18,10.44-1.63,21.55-.19,32.37-3.06,11.11-4.31,20.68-13.31,28.82-22.7,19.63-20.68,39.36-41.46,59.08-62.15,17.62,70.48,22.41,146.23,11.4,222.26-2.59,20.78-6.42,41.27-13.02,61.1Z"/>
  <path class="cls-1" d="m1668.57,690.03c-1.53,4.79-1.63,9.19-3.16,13.89-22.5,2.2-45.77,1.72-68.47-1.72-4.12-19.06-26.05-29.97-45.68-32.94-19.25-1.63-40.03,1.53-60.04-2.78-23.08-4.88-39.74-17.33-50.85-35.81q1.34-.38,2.68-.77c13.69-2.59,29.69-7.18,38.02-18.29,8.33-11.11,9.77-25.95,9.86-40.41l-.38-1.34c66.08,28.44,126.88,68.57,178.02,120.18Z"/>
  <path class="cls-1" d="m1151.27,578.28c-20.21,4.21-39.93,6.61-59.37,11.97-7.37,1.24-15.9,3.26-20.4,9.19-5.17,4.79-8.24,13.22-11.49,18.48-9.86,15.8-25.95,24.04-42.04,32.27-32.18,16.47-72.01,31.22-101.7,11.97-33.52-20.11-31.79-65.12-43.09-102.18-6.42-23.75-17.62-44.53-34.67-61.77,32.27-29.59,66.84-55.64,105.62-74.6,38.59,7.28,75.17,19.06,107.92,38.02,46.44,25.38,84.94,66.84,99.21,116.64Z"/>
</svg>